<svg xmlns="http://www.w3.org/2000/svg" width="800" height="600" viewBox="0 0 800 600">
  <defs>
    <linearGradient id="gradient" x1="0%" y1="0%" x2="100%" y2="100%">
      <stop offset="0%" stop-color="#0066cc" stop-opacity="0.2"/>
      <stop offset="100%" stop-color="#0066cc" stop-opacity="0.1"/>
    </linearGradient>
  </defs>
  
  <!-- Background -->
  <rect width="800" height="600" fill="url(#gradient)"/>
  
  <!-- EU Stars -->
  <g fill="#0066cc">
    <circle cx="400" cy="100" r="6"/>
    <circle cx="430" cy="115" r="6"/>
    <circle cx="450" cy="145" r="6"/>
    <circle cx="450" cy="185" r="6"/>
    <circle cx="430" cy="215" r="6"/>
    <circle cx="400" cy="230" r="6"/>
    <circle cx="370" cy="215" r="6"/>
    <circle cx="350" cy="185" r="6"/>
    <circle cx="350" cy="145" r="6"/>
    <circle cx="370" cy="115" r="6"/>
    <circle cx="400" cy="165" r="6"/>
    <circle cx="315" cy="165" r="6"/>
    <circle cx="485" cy="165" r="6"/>
  </g>
  
  <!-- Stock Market Graph -->
  <polyline 
    points="100,400 150,380 200,390 250,350 300,370 350,330 400,340 450,300 500,320 550,280 600,290 650,250 700,270"
    fill="none"
    stroke="#0066cc"
    stroke-width="3"
  />
  
  <polyline 
    points="100,420 150,410 200,430 250,400 300,410 350,380 400,400 450,370 500,390 550,350 600,370 650,340 700,360"
    fill="none"
    stroke="#4299e1"
    stroke-width="3"
  />
  
  <!-- Grid Lines -->
  <g stroke="#e2e8f0" stroke-width="1">
    <line x1="100" y1="300" x2="700" y2="300"/>
    <line x1="100" y1="350" x2="700" y2="350"/>
    <line x1="100" y1="400" x2="700" y2="400"/>
    <line x1="100" y1="450" x2="700" y2="450"/>
    
    <line x1="100" y1="250" x2="100" y2="450"/>
    <line x1="200" y1="250" x2="200" y2="450"/>
    <line x1="300" y1="250" x2="300" y2="450"/>
    <line x1="400" y1="250" x2="400" y2="450"/>
    <line x1="500" y1="250" x2="500" y2="450"/>
    <line x1="600" y1="250" x2="600" y2="450"/>
    <line x1="700" y1="250" x2="700" y2="450"/>
  </g>
</svg>
